<svg version="1.1" id="Layer_1" xmlns="http://www.w3.org/2000/svg" xmlns:xlink="http://www.w3.org/1999/xlink" x="0px" y="0px"
	 width="100%" viewBox="0 0 998 251" enable-background="new 0 0 998 251" xml:space="preserve">
<path fill="#FBFBFB" opacity="1.000000" stroke="none" 
	d="
M737.000000,252.000000 
	C491.333344,252.000000 246.166672,252.000000 1.000000,252.000000 
	C1.000000,168.333328 1.000000,84.666664 1.000000,1.000000 
	C333.666656,1.000000 666.333313,1.000000 999.000000,1.000000 
	C999.000000,84.666664 999.000000,168.333328 999.000000,252.000000 
	C911.833313,252.000000 824.666687,252.000000 737.000000,252.000000 
M181.285370,113.129822 
	C184.593201,113.356689 187.932480,113.384102 191.194977,113.898506 
	C192.719177,114.138832 194.499710,114.981949 195.466568,116.136139 
	C199.307739,120.721596 203.849548,122.172226 208.666138,119.936165 
	C213.150375,117.854401 215.060211,112.986244 213.872879,107.281120 
	C213.612839,106.031563 213.622757,104.141922 214.364899,103.359024 
	C220.964584,96.396904 227.756866,89.617348 233.471252,83.819908 
	C238.112656,85.196930 241.479675,87.013069 244.841156,87.002884 
	C249.968002,86.987366 253.690277,81.970207 253.562592,76.699699 
	C253.436798,71.507034 249.391510,67.353088 244.076202,66.958435 
	C238.813232,66.567657 234.246933,69.981995 233.791550,75.567902 
	C233.461670,79.614441 231.627869,82.273331 228.891479,84.883690 
	C223.717560,89.819305 218.655289,94.880280 213.727081,100.060822 
	C211.903931,101.977333 210.508362,102.486320 207.843719,101.396843 
	C202.524673,99.222076 196.797089,100.965698 195.414230,106.091782 
	C193.818481,112.007027 190.103394,111.324051 186.019119,111.177460 
	C184.365936,111.118126 182.716797,110.946396 180.585861,110.300613 
	C176.171173,109.226135 172.302933,107.572067 169.318665,103.686745 
	C166.372009,99.850380 161.005447,99.636215 156.712769,102.331322 
	C152.318527,105.090195 150.023682,110.333328 152.658112,114.736427 
	C155.074707,118.775475 153.857788,121.867950 152.491806,125.379906 
	C150.986237,129.250763 149.540466,133.146988 147.927261,136.972549 
	C147.449570,138.105347 146.530426,139.893311 145.751572,139.926498 
	C138.638489,140.229614 135.697159,144.764420 134.402466,150.761765 
	C127.488441,151.171555 119.919724,149.676529 114.621155,152.476883 
	C109.245186,155.318146 105.953529,162.287155 102.065002,167.676346 
	C100.289131,170.137573 98.746216,171.024933 95.561127,170.395584 
	C90.565720,169.408539 86.137352,172.264206 84.357750,176.686996 
	C82.632851,180.973831 84.258018,185.900879 88.418167,188.997101 
	C91.873070,191.568420 97.130020,191.284195 100.949013,188.319626 
	C104.390297,185.648254 105.583786,180.114548 103.106133,175.636826 
	C101.718094,173.128296 101.759804,171.491852 103.811546,169.575226 
	C105.009018,168.456604 106.100807,167.075043 106.806480,165.603775 
	C111.848396,155.091675 120.408401,152.087616 131.245697,154.124008 
	C133.198105,154.490891 135.427322,155.278137 136.775955,156.625046 
	C141.686234,161.529007 147.668381,162.363342 152.219193,158.343597 
	C156.894775,154.213638 156.853195,148.420227 152.457626,142.798584 
	C151.535583,141.619339 150.985703,139.409912 151.419678,138.041672 
	C153.019836,132.996811 154.995178,128.058273 157.098328,123.196053 
	C157.531265,122.195129 159.085907,121.125343 160.184982,121.055603 
	C167.913498,120.565140 170.457138,118.593132 172.636932,110.833755 
	C175.337616,111.427696 178.042618,112.022591 181.285370,113.129822 
M220.821594,183.499908 
	C220.821594,191.782578 220.821594,200.065262 220.821594,208.659210 
	C215.892105,208.659210 211.504684,208.659210 206.525864,208.659210 
	C206.525864,206.676361 206.525864,204.891037 206.525864,203.105713 
	C206.525864,183.446381 206.525955,163.787064 206.525620,144.127731 
	C206.525604,142.961502 206.511108,141.795181 206.522705,140.629074 
	C206.560043,136.875458 205.359955,134.874481 200.953125,135.126297 
	C194.144577,135.515381 187.297409,135.227753 180.466629,135.229095 
	C172.745316,135.230606 172.168625,135.766922 172.162216,143.358444 
	C172.145340,163.350967 172.156494,183.343506 172.156494,203.336044 
	C172.156494,205.101273 172.156509,206.866486 172.156509,208.731903 
	C166.876877,208.731903 162.293396,208.731903 157.425888,208.731903 
	C157.332657,207.563843 157.190659,206.602524 157.189178,205.640976 
	C157.171875,194.478516 157.067856,183.314392 157.232895,172.154373 
	C157.290298,168.272095 156.011063,166.935135 152.027023,167.136963 
	C145.379898,167.473694 138.703323,167.224854 132.039139,167.229919 
	C125.262718,167.235062 125.160500,167.339417 125.157715,174.360428 
	C125.153229,185.659271 125.156509,196.958115 125.156509,208.628342 
	C93.278557,208.628342 61.848991,208.628342 30.227474,208.628342 
	C30.227474,210.947556 30.227474,212.888977 30.227474,214.962540 
	C31.423658,215.081863 32.399521,215.263321 33.375622,215.264587 
	C107.175385,215.360733 180.975204,215.422073 254.774811,215.582382 
	C258.746948,215.591003 260.051361,214.010818 260.044220,210.246796 
	C259.981140,177.092621 259.981689,143.938248 260.043945,110.784065 
	C260.050964,107.046143 258.808777,105.346962 254.804794,105.408318 
	C246.150299,105.540947 237.490387,105.280701 228.832413,105.237770 
	C221.138840,105.199615 220.833206,105.498642 220.827744,113.025848 
	C220.810944,136.183853 220.821609,159.341888 220.821594,183.499908 
M890.828796,87.618134 
	C887.117249,82.091614 883.464233,76.524086 879.644714,71.073128 
	C878.879822,69.981430 877.496033,68.617935 876.371948,68.594322 
	C866.946594,68.396233 857.515320,68.481621 847.058228,68.481621 
	C848.555786,70.807198 849.483093,72.287109 850.449158,73.741249 
	C861.039612,89.682610 871.547485,105.680267 882.313293,121.502357 
	C884.235962,124.327957 884.235413,126.197929 882.378479,128.980820 
	C871.387451,145.452805 860.581909,162.048645 849.736267,178.617432 
	C848.991394,179.755371 848.427795,181.011932 847.479309,182.770569 
	C856.009338,182.770569 863.665649,182.474289 871.284912,182.877640 
	C876.137390,183.134537 879.085144,181.740906 881.676758,177.403564 
	C887.450012,167.741180 893.906799,158.487167 900.250122,148.815033 
	C906.601746,158.290604 912.968018,167.066727 918.506897,176.337128 
	C921.546997,181.425415 924.984375,183.366806 930.874329,182.907623 
	C938.202576,182.336319 945.609253,182.770569 953.779907,182.770569 
	C952.325134,180.422470 951.502197,179.009171 950.598938,177.649155 
	C939.920776,161.569305 929.355957,145.411469 918.442810,129.492523 
	C916.134460,126.125374 916.426880,123.980286 918.564514,120.799347 
	C929.051819,105.193314 939.281738,89.414299 949.596802,73.692558 
	C950.547119,72.244049 951.456299,70.768524 952.911682,68.474838 
	C943.103088,68.474838 934.326172,68.300858 925.566711,68.612801 
	C923.678711,68.680031 921.176270,70.034622 920.109192,71.587868 
	C913.422241,81.321663 907.061707,91.279709 900.285034,101.634308 
	C897.132385,96.991058 894.161804,92.616005 890.828796,87.618134 
M38.841091,109.622337 
	C41.426628,113.457153 43.533859,117.745735 46.673355,121.055008 
	C71.818390,147.559753 115.472137,137.526520 126.825554,102.766479 
	C136.285980,73.802132 118.074181,42.455856 89.359825,38.214848 
	C70.151878,35.377899 54.409946,41.754246 43.050392,57.181335 
	C31.237585,73.223961 29.901922,90.816238 38.841091,109.622337 
M486.447235,112.986557 
	C479.641235,122.292374 477.480621,132.860275 478.111298,144.137787 
	C479.396881,167.126740 496.399994,183.680161 519.140991,184.213974 
	C527.506226,184.410339 534.871216,181.896790 541.145264,175.587540 
	C541.440796,178.471207 541.653687,180.548660 541.857056,182.533081 
	C550.440857,182.533081 558.554321,182.533081 566.815125,182.533081 
	C566.815125,154.292450 566.815125,126.286514 566.815125,98.319351 
	C558.226074,98.319351 550.001099,98.319351 541.782104,98.319351 
	C541.520203,100.489838 541.298096,102.330544 541.006897,104.743919 
	C534.479431,99.474426 527.754639,96.289360 519.955444,96.571098 
	C506.694397,97.050140 495.299042,101.680191 486.447235,112.986557 
M749.271973,165.203537 
	C740.502808,154.602875 731.733582,144.002213 722.828186,133.236893 
	C733.896545,121.544128 744.626282,110.209068 756.203796,97.978439 
	C746.789185,97.978439 738.963867,98.254997 731.171509,97.868614 
	C726.899475,97.656792 724.121582,99.097710 721.402161,102.239456 
	C715.368591,109.210121 708.968140,115.863205 702.717285,122.645760 
	C702.335083,122.515007 701.952942,122.384247 701.570801,122.253487 
	C701.570801,104.114220 701.570801,85.974945 701.570801,67.769859 
	C692.608765,67.769859 684.368896,67.769859 676.056580,67.769859 
	C676.056580,106.136536 676.056580,144.205841 676.056580,182.523468 
	C684.525513,182.523468 692.758789,182.523468 701.527100,182.523468 
	C701.527100,175.507904 701.813965,168.705627 701.431458,161.941208 
	C701.152588,157.010223 702.376099,153.142838 706.910156,150.126846 
	C708.424744,151.865509 710.069458,153.702164 711.658081,155.586121 
	C718.632996,163.858200 725.572693,172.160110 732.582458,180.402527 
	C733.382385,181.343079 734.529175,182.632339 735.536621,182.651855 
	C744.578735,182.827118 753.625610,182.754181 763.740784,182.754181 
	C758.559143,176.472076 754.140015,171.114456 749.271973,165.203537 
M320.537842,68.460564 
	C317.076233,68.460564 313.614624,68.460564 310.047546,68.460564 
	C310.047546,76.750771 310.047546,84.517296 310.047546,92.798294 
	C319.180786,92.798294 328.091278,92.798294 337.555725,92.798294 
	C337.555725,123.025131 337.555725,152.741226 337.555725,182.497742 
	C346.546661,182.497742 354.967285,182.497742 363.942810,182.497742 
	C363.942810,152.504532 363.942810,122.792603 363.942810,92.585083 
	C373.390778,92.585083 382.288177,92.585083 391.214783,92.585083 
	C391.214783,84.340965 391.214783,76.604347 391.214783,68.460632 
	C367.771149,68.460632 344.649780,68.460632 320.537842,68.460564 
M652.821960,121.204445 
	C655.799255,119.790001 658.776550,118.375549 661.744873,116.965378 
	C654.615051,101.595070 634.730835,93.354057 616.367126,97.695786 
	C594.205811,102.935371 580.809753,119.984283 581.363586,141.372696 
	C581.940796,163.664154 596.507080,179.660675 618.273804,183.241989 
	C637.317078,186.375214 656.628357,177.803970 661.832458,163.732437 
	C657.502747,161.686676 652.999146,159.898834 648.848389,157.500443 
	C644.817688,155.171432 641.790039,155.234207 637.777405,158.132462 
	C630.044434,163.717865 617.800415,161.863785 611.726807,155.002502 
	C604.598206,146.949387 604.449280,134.755081 611.373901,126.104050 
	C617.098999,118.951569 628.770935,116.394859 636.643555,122.041115 
	C642.041138,125.912277 646.049561,125.186577 650.799133,122.177673 
	C651.218018,121.912346 651.696899,121.741882 652.821960,121.204445 
M804.338440,110.907646 
	C803.422791,112.745667 802.507141,114.583694 801.591492,116.421715 
	C801.309204,116.361893 801.026855,116.302063 800.744507,116.242233 
	C800.744507,110.191933 800.744507,104.141624 800.744507,98.336121 
	C791.965576,98.336121 783.715576,98.336121 775.492432,98.336121 
	C775.492432,126.593773 775.492432,154.491913 775.492432,182.511078 
	C784.083923,182.511078 792.336243,182.511078 801.009155,182.511078 
	C801.009155,171.793259 800.972168,161.331467 801.017822,150.870041 
	C801.086731,135.074448 812.233643,122.916969 827.962646,121.540421 
	C830.705505,121.300377 833.487366,121.506378 836.376465,121.506378 
	C836.376465,113.060242 836.376465,105.259026 836.376465,97.481270 
	C823.818420,94.566429 812.769348,99.058708 804.338440,110.907646 
M406.155518,109.524651 
	C406.155518,133.782059 406.155518,158.039459 406.155518,182.389740 
	C415.092468,182.389740 423.455200,182.389740 432.009155,182.389740 
	C432.009155,171.521301 431.879822,161.032944 432.044006,150.549194 
	C432.222687,139.143463 436.974548,129.940994 447.446991,125.136261 
	C453.414185,122.398521 460.312225,121.689636 467.290314,119.942146 
	C467.290314,113.141953 467.290314,105.237389 467.290314,97.371529 
	C451.850372,94.501320 442.156250,99.772247 431.789459,117.118034 
	C431.789459,110.210938 431.789459,104.174263 431.789459,98.307014 
	C423.011444,98.307014 414.765961,98.307014 406.155518,98.307014 
	C406.155518,101.932129 406.155518,105.233246 406.155518,109.524651 
z"/>
<path fill="#161616" opacity="1.000000" stroke="none" 
	d="
M220.821594,182.999908 
	C220.821609,159.341888 220.810944,136.183853 220.827744,113.025848 
	C220.833206,105.498642 221.138840,105.199615 228.832413,105.237770 
	C237.490387,105.280701 246.150299,105.540947 254.804794,105.408318 
	C258.808777,105.346962 260.050964,107.046143 260.043945,110.784065 
	C259.981689,143.938248 259.981140,177.092621 260.044220,210.246796 
	C260.051361,214.010818 258.746948,215.591003 254.774811,215.582382 
	C180.975204,215.422073 107.175385,215.360733 33.375622,215.264587 
	C32.399521,215.263321 31.423658,215.081863 30.227474,214.962540 
	C30.227474,212.888977 30.227474,210.947556 30.227474,208.628342 
	C61.848991,208.628342 93.278557,208.628342 125.156509,208.628342 
	C125.156509,196.958115 125.153229,185.659271 125.157715,174.360428 
	C125.160500,167.339417 125.262718,167.235062 132.039139,167.229919 
	C138.703323,167.224854 145.379898,167.473694 152.027023,167.136963 
	C156.011063,166.935135 157.290298,168.272095 157.232895,172.154373 
	C157.067856,183.314392 157.171875,194.478516 157.189178,205.640976 
	C157.190659,206.602524 157.332657,207.563843 157.425888,208.731903 
	C162.293396,208.731903 166.876877,208.731903 172.156509,208.731903 
	C172.156509,206.866486 172.156494,205.101273 172.156494,203.336044 
	C172.156494,183.343506 172.145340,163.350967 172.162216,143.358444 
	C172.168625,135.766922 172.745316,135.230606 180.466629,135.229095 
	C187.297409,135.227753 194.144577,135.515381 200.953125,135.126297 
	C205.359955,134.874481 206.560043,136.875458 206.522705,140.629074 
	C206.511108,141.795181 206.525604,142.961502 206.525620,144.127731 
	C206.525955,163.787064 206.525864,183.446381 206.525864,203.105713 
	C206.525864,204.891037 206.525864,206.676361 206.525864,208.659210 
	C211.504684,208.659210 215.892105,208.659210 220.821594,208.659210 
	C220.821594,200.065262 220.821594,191.782578 220.821594,182.999908 
z"/>
<path fill="#151515" opacity="1.000000" stroke="none" 
	d="
M891.010010,87.929543 
	C894.161804,92.616005 897.132385,96.991058 900.285034,101.634308 
	C907.061707,91.279709 913.422241,81.321663 920.109192,71.587868 
	C921.176270,70.034622 923.678711,68.680031 925.566711,68.612801 
	C934.326172,68.300858 943.103088,68.474838 952.911682,68.474838 
	C951.456299,70.768524 950.547119,72.244049 949.596802,73.692558 
	C939.281738,89.414299 929.051819,105.193314 918.564514,120.799347 
	C916.426880,123.980286 916.134460,126.125374 918.442810,129.492523 
	C929.355957,145.411469 939.920776,161.569305 950.598938,177.649155 
	C951.502197,179.009171 952.325134,180.422470 953.779907,182.770569 
	C945.609253,182.770569 938.202576,182.336319 930.874329,182.907623 
	C924.984375,183.366806 921.546997,181.425415 918.506897,176.337128 
	C912.968018,167.066727 906.601746,158.290604 900.250122,148.815033 
	C893.906799,158.487167 887.450012,167.741180 881.676758,177.403564 
	C879.085144,181.740906 876.137390,183.134537 871.284912,182.877640 
	C863.665649,182.474289 856.009338,182.770569 847.479309,182.770569 
	C848.427795,181.011932 848.991394,179.755371 849.736267,178.617432 
	C860.581909,162.048645 871.387451,145.452805 882.378479,128.980820 
	C884.235413,126.197929 884.235962,124.327957 882.313293,121.502357 
	C871.547485,105.680267 861.039612,89.682610 850.449158,73.741249 
	C849.483093,72.287109 848.555786,70.807198 847.058228,68.481621 
	C857.515320,68.481621 866.946594,68.396233 876.371948,68.594322 
	C877.496033,68.617935 878.879822,69.981430 879.644714,71.073128 
	C883.464233,76.524086 887.117249,82.091614 891.010010,87.929543 
z"/>
<path fill="#171717" opacity="1.000000" stroke="none" 
	d="
M38.650711,109.299438 
	C29.901922,90.816238 31.237585,73.223961 43.050392,57.181335 
	C54.409946,41.754246 70.151878,35.377899 89.359825,38.214848 
	C118.074181,42.455856 136.285980,73.802132 126.825554,102.766479 
	C115.472137,137.526520 71.818390,147.559753 46.673355,121.055008 
	C43.533859,117.745735 41.426628,113.457153 38.650711,109.299438 
M89.165344,52.131641 
	C88.654915,51.271942 88.200874,49.715607 87.624626,49.668961 
	C84.565399,49.421326 81.475517,49.552547 77.938972,49.552547 
	C79.253883,55.478725 76.771606,57.326603 71.930130,58.624725 
	C65.807426,60.266365 61.743458,64.879677 60.885380,71.445488 
	C59.946728,78.627853 62.784260,84.193581 69.238945,87.557404 
	C73.062561,89.550056 77.332512,90.734131 81.016296,92.928802 
	C83.139191,94.193558 86.058411,96.910095 85.873520,98.687546 
	C85.471634,102.550919 81.362610,102.393639 78.625816,101.613739 
	C73.961739,100.284622 69.541443,98.100021 64.432182,96.038116 
	C62.261112,98.350067 59.574944,101.210541 56.311852,104.685379 
	C60.033592,107.266586 63.006195,110.140648 66.559792,111.598793 
	C71.647980,113.686630 76.746536,115.080605 74.434410,122.178833 
	C78.664154,122.178833 82.161758,122.178833 86.224434,122.178833 
	C84.279617,115.827751 87.165398,113.270264 92.421501,111.895691 
	C94.518471,111.347290 96.628639,109.763443 98.100479,108.093597 
	C105.537773,99.655823 103.481613,88.167152 93.512802,82.838646 
	C89.280800,80.576561 84.510910,79.306511 80.331764,76.967010 
	C78.714722,76.061783 78.056145,73.444397 76.960922,71.607010 
	C78.814400,70.752556 80.811241,68.965454 82.493622,69.224060 
	C86.971756,69.912430 91.314438,71.481995 96.162796,72.826469 
	C95.869377,73.146294 96.247650,72.810333 96.535255,72.409348 
	C104.142616,61.802734 104.106461,61.893555 91.995987,57.343784 
	C90.697571,56.855988 90.093849,54.519054 89.165344,52.131641 
z"/>
<path fill="#151515" opacity="1.000000" stroke="none" 
	d="
M486.683350,112.717194 
	C495.299042,101.680191 506.694397,97.050140 519.955444,96.571098 
	C527.754639,96.289360 534.479431,99.474426 541.006897,104.743919 
	C541.298096,102.330544 541.520203,100.489838 541.782104,98.319351 
	C550.001099,98.319351 558.226074,98.319351 566.815125,98.319351 
	C566.815125,126.286514 566.815125,154.292450 566.815125,182.533081 
	C558.554321,182.533081 550.440857,182.533081 541.857056,182.533081 
	C541.653687,180.548660 541.440796,178.471207 541.145264,175.587540 
	C534.871216,181.896790 527.506226,184.410339 519.140991,184.213974 
	C496.399994,183.680161 479.396881,167.126740 478.111298,144.137787 
	C477.480621,132.860275 479.641235,122.292374 486.683350,112.717194 
M514.836060,159.926590 
	C530.708008,164.695663 541.342041,157.678558 542.681763,141.551941 
	C543.650940,129.886002 536.532776,120.461403 525.961304,119.413521 
	C515.245300,118.351303 506.931427,123.545235 503.904755,133.192856 
	C500.547211,143.895248 504.567444,154.255692 514.836060,159.926590 
z"/>
<path fill="#161616" opacity="1.000000" stroke="none" 
	d="
M749.496460,165.480194 
	C754.140015,171.114456 758.559143,176.472076 763.740784,182.754181 
	C753.625610,182.754181 744.578735,182.827118 735.536621,182.651855 
	C734.529175,182.632339 733.382385,181.343079 732.582458,180.402527 
	C725.572693,172.160110 718.632996,163.858200 711.658081,155.586121 
	C710.069458,153.702164 708.424744,151.865509 706.910156,150.126846 
	C702.376099,153.142838 701.152588,157.010223 701.431458,161.941208 
	C701.813965,168.705627 701.527100,175.507904 701.527100,182.523468 
	C692.758789,182.523468 684.525513,182.523468 676.056580,182.523468 
	C676.056580,144.205841 676.056580,106.136536 676.056580,67.769859 
	C684.368896,67.769859 692.608765,67.769859 701.570801,67.769859 
	C701.570801,85.974945 701.570801,104.114220 701.570801,122.253487 
	C701.952942,122.384247 702.335083,122.515007 702.717285,122.645760 
	C708.968140,115.863205 715.368591,109.210121 721.402161,102.239456 
	C724.121582,99.097710 726.899475,97.656792 731.171509,97.868614 
	C738.963867,98.254997 746.789185,97.978439 756.203796,97.978439 
	C744.626282,110.209068 733.896545,121.544128 722.828186,133.236893 
	C731.733582,144.002213 740.502808,154.602875 749.496460,165.480194 
z"/>
<path fill="#191919" opacity="1.000000" stroke="none" 
	d="
M321.033112,68.460602 
	C344.649780,68.460632 367.771149,68.460632 391.214783,68.460632 
	C391.214783,76.604347 391.214783,84.340965 391.214783,92.585083 
	C382.288177,92.585083 373.390778,92.585083 363.942810,92.585083 
	C363.942810,122.792603 363.942810,152.504532 363.942810,182.497742 
	C354.967285,182.497742 346.546661,182.497742 337.555725,182.497742 
	C337.555725,152.741226 337.555725,123.025131 337.555725,92.798294 
	C328.091278,92.798294 319.180786,92.798294 310.047546,92.798294 
	C310.047546,84.517296 310.047546,76.750771 310.047546,68.460564 
	C313.614624,68.460564 317.076233,68.460564 321.033112,68.460602 
z"/>
<path fill="#161616" opacity="1.000000" stroke="none" 
	d="
M652.484985,121.365898 
	C651.696899,121.741882 651.218018,121.912346 650.799133,122.177673 
	C646.049561,125.186577 642.041138,125.912277 636.643555,122.041115 
	C628.770935,116.394859 617.098999,118.951569 611.373901,126.104050 
	C604.449280,134.755081 604.598206,146.949387 611.726807,155.002502 
	C617.800415,161.863785 630.044434,163.717865 637.777405,158.132462 
	C641.790039,155.234207 644.817688,155.171432 648.848389,157.500443 
	C652.999146,159.898834 657.502747,161.686676 661.832458,163.732437 
	C656.628357,177.803970 637.317078,186.375214 618.273804,183.241989 
	C596.507080,179.660675 581.940796,163.664154 581.363586,141.372696 
	C580.809753,119.984283 594.205811,102.935371 616.367126,97.695786 
	C634.730835,93.354057 654.615051,101.595070 661.744873,116.965378 
	C658.776550,118.375549 655.799255,119.790001 652.484985,121.365898 
z"/>
<path fill="#161616" opacity="1.000000" stroke="none" 
	d="
M804.531006,110.596130 
	C812.769348,99.058708 823.818420,94.566429 836.376465,97.481270 
	C836.376465,105.259026 836.376465,113.060242 836.376465,121.506378 
	C833.487366,121.506378 830.705505,121.300377 827.962646,121.540421 
	C812.233643,122.916969 801.086731,135.074448 801.017822,150.870041 
	C800.972168,161.331467 801.009155,171.793259 801.009155,182.511078 
	C792.336243,182.511078 784.083923,182.511078 775.492432,182.511078 
	C775.492432,154.491913 775.492432,126.593773 775.492432,98.336121 
	C783.715576,98.336121 791.965576,98.336121 800.744507,98.336121 
	C800.744507,104.141624 800.744507,110.191933 800.744507,116.242233 
	C801.026855,116.302063 801.309204,116.361893 801.591492,116.421715 
	C802.507141,114.583694 803.422791,112.745667 804.531006,110.596130 
z"/>
<path fill="#161616" opacity="1.000000" stroke="none" 
	d="
M406.155518,109.029510 
	C406.155518,105.233246 406.155518,101.932129 406.155518,98.307014 
	C414.765961,98.307014 423.011444,98.307014 431.789459,98.307014 
	C431.789459,104.174263 431.789459,110.210938 431.789459,117.118034 
	C442.156250,99.772247 451.850372,94.501320 467.290314,97.371529 
	C467.290314,105.237389 467.290314,113.141953 467.290314,119.942146 
	C460.312225,121.689636 453.414185,122.398521 447.446991,125.136261 
	C436.974548,129.940994 432.222687,139.143463 432.044006,150.549194 
	C431.879822,161.032944 432.009155,171.521301 432.009155,182.389740 
	C423.455200,182.389740 415.092468,182.389740 406.155518,182.389740 
	C406.155518,158.039459 406.155518,133.782059 406.155518,109.029510 
z"/>
<path fill="#1F1F1F" opacity="1.000000" stroke="none" 
	d="
M180.747604,112.617485 
	C178.042618,112.022591 175.337616,111.427696 172.636932,110.833755 
	C170.457138,118.593132 167.913498,120.565140 160.184982,121.055603 
	C159.085907,121.125343 157.531265,122.195129 157.098328,123.196053 
	C154.995178,128.058273 153.019836,132.996811 151.419678,138.041672 
	C150.985703,139.409912 151.535583,141.619339 152.457626,142.798584 
	C156.853195,148.420227 156.894775,154.213638 152.219193,158.343597 
	C147.668381,162.363342 141.686234,161.529007 136.775955,156.625046 
	C135.427322,155.278137 133.198105,154.490891 131.245697,154.124008 
	C120.408401,152.087616 111.848396,155.091675 106.806480,165.603775 
	C106.100807,167.075043 105.009018,168.456604 103.811546,169.575226 
	C101.759804,171.491852 101.718094,173.128296 103.106133,175.636826 
	C105.583786,180.114548 104.390297,185.648254 100.949013,188.319626 
	C97.130020,191.284195 91.873070,191.568420 88.418167,188.997101 
	C84.258018,185.900879 82.632851,180.973831 84.357750,176.686996 
	C86.137352,172.264206 90.565720,169.408539 95.561127,170.395584 
	C98.746216,171.024933 100.289131,170.137573 102.065002,167.676346 
	C105.953529,162.287155 109.245186,155.318146 114.621155,152.476883 
	C119.919724,149.676529 127.488441,151.171555 134.402466,150.761765 
	C135.697159,144.764420 138.638489,140.229614 145.751572,139.926498 
	C146.530426,139.893311 147.449570,138.105347 147.927261,136.972549 
	C149.540466,133.146988 150.986237,129.250763 152.491806,125.379906 
	C153.857788,121.867950 155.074707,118.775475 152.658112,114.736427 
	C150.023682,110.333328 152.318527,105.090195 156.712769,102.331322 
	C161.005447,99.636215 166.372009,99.850380 169.318665,103.686745 
	C172.302933,107.572067 176.171173,109.226135 180.752075,111.012161 
	C180.861420,112.021629 180.804520,112.319557 180.747604,112.617485 
z"/>
<path fill="#1F1F1F" opacity="1.000000" stroke="none" 
	d="
M181.016479,112.873657 
	C180.804520,112.319557 180.861420,112.021629 180.992065,111.274765 
	C182.716797,110.946396 184.365936,111.118126 186.019119,111.177460 
	C190.103394,111.324051 193.818481,112.007027 195.414230,106.091782 
	C196.797089,100.965698 202.524673,99.222076 207.843719,101.396843 
	C210.508362,102.486320 211.903931,101.977333 213.727081,100.060822 
	C218.655289,94.880280 223.717560,89.819305 228.891479,84.883690 
	C231.627869,82.273331 233.461670,79.614441 233.791550,75.567902 
	C234.246933,69.981995 238.813232,66.567657 244.076202,66.958435 
	C249.391510,67.353088 253.436798,71.507034 253.562592,76.699699 
	C253.690277,81.970207 249.968002,86.987366 244.841156,87.002884 
	C241.479675,87.013069 238.112656,85.196930 233.471252,83.819908 
	C227.756866,89.617348 220.964584,96.396904 214.364899,103.359024 
	C213.622757,104.141922 213.612839,106.031563 213.872879,107.281120 
	C215.060211,112.986244 213.150375,117.854401 208.666138,119.936165 
	C203.849548,122.172226 199.307739,120.721596 195.466568,116.136139 
	C194.499710,114.981949 192.719177,114.138832 191.194977,113.898506 
	C187.932480,113.384102 184.593201,113.356689 181.016479,112.873657 
z"/>
<path fill="#F6F6F6" opacity="1.000000" stroke="none" 
	d="
M89.166611,52.585773 
	C90.093849,54.519054 90.697571,56.855988 91.995987,57.343784 
	C104.106461,61.893555 104.142616,61.802734 96.535255,72.409348 
	C96.247650,72.810333 95.869377,73.146294 96.162796,72.826469 
	C91.314438,71.481995 86.971756,69.912430 82.493622,69.224060 
	C80.811241,68.965454 78.814400,70.752556 76.960922,71.607010 
	C78.056145,73.444397 78.714722,76.061783 80.331764,76.967010 
	C84.510910,79.306511 89.280800,80.576561 93.512802,82.838646 
	C103.481613,88.167152 105.537773,99.655823 98.100479,108.093597 
	C96.628639,109.763443 94.518471,111.347290 92.421501,111.895691 
	C87.165398,113.270264 84.279617,115.827751 86.224434,122.178833 
	C82.161758,122.178833 78.664154,122.178833 74.434410,122.178833 
	C76.746536,115.080605 71.647980,113.686630 66.559792,111.598793 
	C63.006195,110.140648 60.033592,107.266586 56.311852,104.685379 
	C59.574944,101.210541 62.261112,98.350067 64.432182,96.038116 
	C69.541443,98.100021 73.961739,100.284622 78.625816,101.613739 
	C81.362610,102.393639 85.471634,102.550919 85.873520,98.687546 
	C86.058411,96.910095 83.139191,94.193558 81.016296,92.928802 
	C77.332512,90.734131 73.062561,89.550056 69.238945,87.557404 
	C62.784260,84.193581 59.946728,78.627853 60.885380,71.445488 
	C61.743458,64.879677 65.807426,60.266365 71.930130,58.624725 
	C76.771606,57.326603 79.253883,55.478725 77.938972,49.552547 
	C81.475517,49.552547 84.565399,49.421326 87.624626,49.668961 
	C88.200874,49.715607 88.654915,51.271942 89.166611,52.585773 
z"/>
<path fill="#F8F8F8" opacity="1.000000" stroke="none" 
	d="
M514.492126,159.758759 
	C504.567444,154.255692 500.547211,143.895248 503.904755,133.192856 
	C506.931427,123.545235 515.245300,118.351303 525.961304,119.413521 
	C536.532776,120.461403 543.650940,129.886002 542.681763,141.551941 
	C541.342041,157.678558 530.708008,164.695663 514.492126,159.758759 
z"/>
</svg>